<svg width="364" height="219" viewBox="0 0 364 219" fill="none" xmlns="http://www.w3.org/2000/svg">
<path d="M1.89062 216.838C5.32093 214.633 7.79285 209.49 10.1124 206.261C12.9144 202.36 15.1832 198.028 18.1564 194.262C24.3704 186.391 31.2401 179.065 37.5332 171.241C46.5152 160.074 62.4924 150.955 76.3311 147.331C86.3641 144.703 96.4917 143.031 106.863 143.242C112.048 143.348 116.539 146.715 121.262 148.486C139.345 155.268 166.14 153.644 183.037 144.131C191.364 139.443 199.014 131.934 204.458 124.177C208.635 118.224 212.134 111.926 215.924 105.733C219.19 100.395 223.746 96.2112 228.012 91.6895C236.939 82.2268 247.753 75.8211 259.788 70.9795C265.594 68.6438 276.93 65.7025 283.165 68.9351C288.378 71.6384 295.122 73.7233 301.075 73.646C310.205 73.5274 316.347 65.5046 321.829 59.2912C327.751 52.5799 332.292 44.0092 336.273 36.048C338.983 30.6277 340.747 24.3744 345.072 20.0488" stroke="#DCC879" stroke-width="3" stroke-linecap="round"/>
<path d="M4.97159 176.273V185H3.91477V177.381H3.86364L1.73295 178.795V177.722L3.91477 176.273H4.97159ZM10.3793 185.119C10.0213 185.114 9.66335 185.045 9.3054 184.915C8.94744 184.784 8.62074 184.564 8.32528 184.254C8.02983 183.942 7.79261 183.52 7.61364 182.989C7.43466 182.455 7.34517 181.784 7.34517 180.977C7.34517 180.205 7.41761 179.52 7.5625 178.923C7.70739 178.324 7.91761 177.82 8.19318 177.411C8.46875 176.999 8.80114 176.686 9.19034 176.473C9.58239 176.26 10.0241 176.153 10.5156 176.153C11.0043 176.153 11.4389 176.251 11.8196 176.447C12.2031 176.641 12.5156 176.911 12.7571 177.257C12.9986 177.604 13.1548 178.003 13.2259 178.455H12.1861C12.0895 178.062 11.902 177.737 11.6236 177.479C11.3452 177.22 10.9759 177.091 10.5156 177.091C9.83949 177.091 9.30682 177.385 8.91761 177.973C8.53125 178.561 8.33665 179.386 8.33381 180.449H8.40199C8.56108 180.207 8.75 180.001 8.96875 179.831C9.19034 179.658 9.43466 179.524 9.7017 179.43C9.96875 179.337 10.2514 179.29 10.5497 179.29C11.0497 179.29 11.5071 179.415 11.9219 179.665C12.3366 179.912 12.669 180.254 12.919 180.692C13.169 181.126 13.294 181.625 13.294 182.188C13.294 182.727 13.1733 183.222 12.9318 183.67C12.6903 184.116 12.3509 184.472 11.9134 184.736C11.4787 184.997 10.9673 185.125 10.3793 185.119ZM10.3793 184.182C10.7372 184.182 11.0582 184.092 11.3423 183.913C11.6293 183.734 11.8551 183.494 12.0199 183.193C12.1875 182.892 12.2713 182.557 12.2713 182.188C12.2713 181.827 12.1903 181.499 12.0284 181.203C11.8693 180.905 11.6491 180.668 11.3679 180.491C11.0895 180.315 10.7713 180.227 10.4134 180.227C10.1435 180.227 9.89205 180.281 9.65909 180.389C9.42614 180.494 9.22159 180.639 9.04545 180.824C8.87216 181.009 8.7358 181.22 8.63636 181.459C8.53693 181.695 8.48722 181.943 8.48722 182.205C8.48722 182.551 8.56818 182.875 8.73011 183.176C8.89489 183.477 9.11932 183.72 9.40341 183.905C9.69034 184.089 10.0156 184.182 10.3793 184.182ZM16.7937 180.125C16.4329 180.125 16.1033 180.037 15.805 179.861C15.5096 179.685 15.2738 179.449 15.0977 179.153C14.9215 178.855 14.8335 178.526 14.8335 178.165C14.8335 177.804 14.9215 177.476 15.0977 177.18C15.2738 176.882 15.5096 176.645 15.805 176.469C16.1033 176.293 16.4329 176.205 16.7937 176.205C17.1545 176.205 17.4826 176.293 17.7781 176.469C18.0763 176.645 18.3136 176.882 18.4897 177.18C18.6658 177.476 18.7539 177.804 18.7539 178.165C18.7539 178.526 18.6658 178.855 18.4897 179.153C18.3136 179.449 18.0763 179.685 17.7781 179.861C17.4826 180.037 17.1545 180.125 16.7937 180.125ZM16.7937 179.273C16.9982 179.273 17.1843 179.223 17.3519 179.124C17.5195 179.024 17.6531 178.891 17.7525 178.723C17.8519 178.555 17.9016 178.369 17.9016 178.165C17.9016 177.96 17.8519 177.774 17.7525 177.607C17.6531 177.439 17.5195 177.305 17.3519 177.206C17.1843 177.107 16.9982 177.057 16.7937 177.057C16.5891 177.057 16.4031 177.107 16.2354 177.206C16.0678 177.305 15.9343 177.439 15.8349 177.607C15.7354 177.774 15.6857 177.96 15.6857 178.165C15.6857 178.369 15.7354 178.555 15.8349 178.723C15.9343 178.891 16.0678 179.024 16.2354 179.124C16.4031 179.223 16.5891 179.273 16.7937 179.273Z" fill="#DCC879"/>
<path d="M86.9716 121.273V130H85.9148V122.381H85.8636L83.733 123.795V122.722L85.9148 121.273H86.9716ZM92.277 130.119C91.6918 130.119 91.1747 130.016 90.7259 129.808C90.2798 129.598 89.9318 129.31 89.6818 128.943C89.4318 128.574 89.3082 128.153 89.3111 127.682C89.3082 127.312 89.3807 126.972 89.5284 126.659C89.6761 126.344 89.8778 126.081 90.1335 125.871C90.392 125.658 90.6804 125.523 90.9986 125.466V125.415C90.581 125.307 90.2486 125.072 90.0014 124.712C89.7543 124.348 89.6321 123.935 89.6349 123.472C89.6321 123.028 89.7443 122.632 89.9716 122.283C90.1989 121.933 90.5114 121.658 90.9091 121.456C91.3097 121.254 91.7656 121.153 92.277 121.153C92.7827 121.153 93.2344 121.254 93.6321 121.456C94.0298 121.658 94.3423 121.933 94.5696 122.283C94.7997 122.632 94.9162 123.028 94.919 123.472C94.9162 123.935 94.7898 124.348 94.5398 124.712C94.2926 125.072 93.9645 125.307 93.5554 125.415V125.466C93.8707 125.523 94.1548 125.658 94.4077 125.871C94.6605 126.081 94.8622 126.344 95.0128 126.659C95.1634 126.972 95.2401 127.312 95.2429 127.682C95.2401 128.153 95.1122 128.574 94.8594 128.943C94.6094 129.31 94.2614 129.598 93.8153 129.808C93.3722 130.016 92.8594 130.119 92.277 130.119ZM92.277 129.182C92.6719 129.182 93.0128 129.118 93.2997 128.99C93.5866 128.862 93.8082 128.682 93.9645 128.449C94.1207 128.216 94.2003 127.943 94.2031 127.631C94.2003 127.301 94.1151 127.01 93.9474 126.757C93.7798 126.504 93.5511 126.305 93.2614 126.161C92.9744 126.016 92.6463 125.943 92.277 125.943C91.9048 125.943 91.5724 126.016 91.2798 126.161C90.9901 126.305 90.7614 126.504 90.5938 126.757C90.429 127.01 90.348 127.301 90.3509 127.631C90.348 127.943 90.4233 128.216 90.5767 128.449C90.733 128.682 90.956 128.862 91.2457 128.99C91.5355 129.118 91.8793 129.182 92.277 129.182ZM92.277 125.04C92.5895 125.04 92.8665 124.977 93.108 124.852C93.3523 124.727 93.544 124.553 93.6832 124.328C93.8224 124.104 93.8935 123.841 93.8963 123.54C93.8935 123.244 93.8239 122.987 93.6875 122.768C93.5511 122.547 93.3622 122.376 93.1207 122.257C92.8793 122.135 92.598 122.074 92.277 122.074C91.9503 122.074 91.6648 122.135 91.4205 122.257C91.1761 122.376 90.9872 122.547 90.8537 122.768C90.7202 122.987 90.6548 123.244 90.6577 123.54C90.6548 123.841 90.7216 124.104 90.858 124.328C90.9972 124.553 91.1889 124.727 91.4332 124.852C91.6776 124.977 91.9588 125.04 92.277 125.04ZM98.6999 125.125C98.3391 125.125 98.0096 125.037 97.7113 124.861C97.4158 124.685 97.18 124.449 97.0039 124.153C96.8278 123.855 96.7397 123.526 96.7397 123.165C96.7397 122.804 96.8278 122.476 97.0039 122.18C97.18 121.882 97.4158 121.645 97.7113 121.469C98.0096 121.293 98.3391 121.205 98.6999 121.205C99.0607 121.205 99.3888 121.293 99.6843 121.469C99.9826 121.645 100.22 121.882 100.396 122.18C100.572 122.476 100.66 122.804 100.66 123.165C100.66 123.526 100.572 123.855 100.396 124.153C100.22 124.449 99.9826 124.685 99.6843 124.861C99.3888 125.037 99.0607 125.125 98.6999 125.125ZM98.6999 124.273C98.9045 124.273 99.0906 124.223 99.2582 124.124C99.4258 124.024 99.5593 123.891 99.6587 123.723C99.7582 123.555 99.8079 123.369 99.8079 123.165C99.8079 122.96 99.7582 122.774 99.6587 122.607C99.5593 122.439 99.4258 122.305 99.2582 122.206C99.0906 122.107 98.9045 122.057 98.6999 122.057C98.4954 122.057 98.3093 122.107 98.1417 122.206C97.9741 122.305 97.8406 122.439 97.7411 122.607C97.6417 122.774 97.592 122.96 97.592 123.165C97.592 123.369 97.6417 123.555 97.7411 123.723C97.8406 123.891 97.9741 124.024 98.1417 124.124C98.3093 124.223 98.4954 124.273 98.6999 124.273Z" fill="#DCC879"/>
<path d="M254.903 58V57.233L257.784 54.0795C258.122 53.7102 258.401 53.3892 258.619 53.1165C258.838 52.8409 259 52.5824 259.105 52.3409C259.213 52.0966 259.267 51.8409 259.267 51.5739C259.267 51.267 259.193 51.0014 259.045 50.777C258.901 50.5526 258.702 50.3793 258.449 50.2571C258.196 50.1349 257.912 50.0739 257.597 50.0739C257.261 50.0739 256.969 50.1435 256.719 50.2827C256.472 50.419 256.28 50.6108 256.143 50.858C256.01 51.1051 255.943 51.3949 255.943 51.7273H254.938C254.938 51.2159 255.055 50.767 255.291 50.3807C255.527 49.9943 255.848 49.6932 256.254 49.4773C256.663 49.2614 257.122 49.1534 257.631 49.1534C258.142 49.1534 258.595 49.2614 258.99 49.4773C259.385 49.6932 259.695 49.9844 259.919 50.3509C260.143 50.7173 260.256 51.125 260.256 51.5739C260.256 51.8949 260.197 52.2088 260.081 52.5156C259.967 52.8196 259.768 53.1591 259.484 53.5341C259.203 53.9062 258.812 54.3608 258.312 54.8977L256.352 56.9943V57.0625H260.409V58H254.903ZM265.237 49.2727V58H264.18V50.3807H264.129L261.999 51.7955V50.7216L264.18 49.2727H265.237ZM269.571 53.125C269.21 53.125 268.881 53.0369 268.582 52.8608C268.287 52.6847 268.051 52.4489 267.875 52.1534C267.699 51.8551 267.611 51.5256 267.611 51.1648C267.611 50.804 267.699 50.4759 267.875 50.1804C268.051 49.8821 268.287 49.6449 268.582 49.4688C268.881 49.2926 269.21 49.2045 269.571 49.2045C269.932 49.2045 270.26 49.2926 270.555 49.4688C270.854 49.6449 271.091 49.8821 271.267 50.1804C271.443 50.4759 271.531 50.804 271.531 51.1648C271.531 51.5256 271.443 51.8551 271.267 52.1534C271.091 52.4489 270.854 52.6847 270.555 52.8608C270.26 53.0369 269.932 53.125 269.571 53.125ZM269.571 52.2727C269.776 52.2727 269.962 52.223 270.129 52.1236C270.297 52.0241 270.43 51.8906 270.53 51.723C270.629 51.5554 270.679 51.3693 270.679 51.1648C270.679 50.9602 270.629 50.7741 270.53 50.6065C270.43 50.4389 270.297 50.3054 270.129 50.206C269.962 50.1065 269.776 50.0568 269.571 50.0568C269.366 50.0568 269.18 50.1065 269.013 50.206C268.845 50.3054 268.712 50.4389 268.612 50.6065C268.513 50.7741 268.463 50.9602 268.463 51.1648C268.463 51.3693 268.513 51.5554 268.612 51.723C268.712 51.8906 268.845 52.0241 269.013 52.1236C269.18 52.223 269.366 52.2727 269.571 52.2727Z" fill="#DCC879"/>
<path d="M327.903 12V11.233L330.784 8.07955C331.122 7.71023 331.401 7.3892 331.619 7.11648C331.838 6.84091 332 6.58239 332.105 6.34091C332.213 6.09659 332.267 5.84091 332.267 5.57386C332.267 5.26705 332.193 5.00142 332.045 4.77699C331.901 4.55256 331.702 4.37926 331.449 4.2571C331.196 4.13494 330.912 4.07386 330.597 4.07386C330.261 4.07386 329.969 4.14347 329.719 4.28267C329.472 4.41903 329.28 4.6108 329.143 4.85795C329.01 5.10511 328.943 5.39489 328.943 5.72727H327.938C327.938 5.21591 328.055 4.76705 328.291 4.38068C328.527 3.99432 328.848 3.69318 329.254 3.47727C329.663 3.26136 330.122 3.15341 330.631 3.15341C331.142 3.15341 331.595 3.26136 331.99 3.47727C332.385 3.69318 332.695 3.98437 332.919 4.35085C333.143 4.71733 333.256 5.125 333.256 5.57386C333.256 5.89489 333.197 6.20881 333.081 6.51562C332.967 6.8196 332.768 7.15909 332.484 7.53409C332.203 7.90625 331.812 8.3608 331.312 8.89773L329.352 10.9943V11.0625H333.409V12H327.903ZM335.169 12V11.233L338.05 8.07955C338.388 7.71023 338.666 7.3892 338.885 7.11648C339.104 6.84091 339.266 6.58239 339.371 6.34091C339.479 6.09659 339.533 5.84091 339.533 5.57386C339.533 5.26705 339.459 5.00142 339.311 4.77699C339.166 4.55256 338.967 4.37926 338.714 4.2571C338.462 4.13494 338.178 4.07386 337.862 4.07386C337.527 4.07386 337.234 4.14347 336.984 4.28267C336.737 4.41903 336.545 4.6108 336.409 4.85795C336.276 5.10511 336.209 5.39489 336.209 5.72727H335.203C335.203 5.21591 335.321 4.76705 335.557 4.38068C335.793 3.99432 336.114 3.69318 336.52 3.47727C336.929 3.26136 337.388 3.15341 337.896 3.15341C338.408 3.15341 338.861 3.26136 339.256 3.47727C339.651 3.69318 339.96 3.98437 340.185 4.35085C340.409 4.71733 340.521 5.125 340.521 5.57386C340.521 5.89489 340.463 6.20881 340.347 6.51562C340.233 6.8196 340.034 7.15909 339.75 7.53409C339.469 7.90625 339.078 8.3608 338.578 8.89773L336.618 10.9943V11.0625H340.675V12H335.169ZM343.185 12.0682C342.974 12.0682 342.794 11.9929 342.643 11.8423C342.493 11.6918 342.418 11.5114 342.418 11.3011C342.418 11.0909 342.493 10.9105 342.643 10.7599C342.794 10.6094 342.974 10.5341 343.185 10.5341C343.395 10.5341 343.575 10.6094 343.726 10.7599C343.876 10.9105 343.952 11.0909 343.952 11.3011C343.952 11.4403 343.916 11.5682 343.845 11.6847C343.777 11.8011 343.685 11.8949 343.568 11.9659C343.455 12.0341 343.327 12.0682 343.185 12.0682ZM348.291 12.1193C347.791 12.1193 347.341 12.0199 346.94 11.821C346.539 11.6222 346.218 11.3494 345.977 11.0028C345.735 10.6562 345.603 10.2614 345.581 9.81818H346.603C346.643 10.2131 346.822 10.5398 347.14 10.7983C347.461 11.054 347.845 11.1818 348.291 11.1818C348.649 11.1818 348.967 11.098 349.245 10.9304C349.527 10.7628 349.747 10.5327 349.906 10.2401C350.068 9.9446 350.149 9.6108 350.149 9.23864C350.149 8.85795 350.065 8.51847 349.897 8.22017C349.733 7.91903 349.505 7.68182 349.216 7.50852C348.926 7.33523 348.595 7.24716 348.223 7.24432C347.956 7.24148 347.681 7.28267 347.4 7.3679C347.119 7.45028 346.887 7.55682 346.706 7.6875L345.717 7.56818L346.245 3.27273H350.779V4.21023H347.132L346.825 6.78409H346.876C347.055 6.64205 347.279 6.52415 347.549 6.4304C347.819 6.33665 348.1 6.28977 348.393 6.28977C348.927 6.28977 349.403 6.41761 349.821 6.6733C350.241 6.92614 350.571 7.27273 350.809 7.71307C351.051 8.15341 351.172 8.65625 351.172 9.22159C351.172 9.77841 351.047 10.2756 350.797 10.7131C350.549 11.1477 350.208 11.4915 349.774 11.7443C349.339 11.9943 348.845 12.1193 348.291 12.1193ZM354.688 7.125C354.327 7.125 353.998 7.03693 353.7 6.8608C353.404 6.68466 353.168 6.44886 352.992 6.15341C352.816 5.85511 352.728 5.52557 352.728 5.16477C352.728 4.80398 352.816 4.47585 352.992 4.1804C353.168 3.8821 353.404 3.64489 353.7 3.46875C353.998 3.29261 354.327 3.20455 354.688 3.20455C355.049 3.20455 355.377 3.29261 355.673 3.46875C355.971 3.64489 356.208 3.8821 356.384 4.1804C356.56 4.47585 356.648 4.80398 356.648 5.16477C356.648 5.52557 356.56 5.85511 356.384 6.15341C356.208 6.44886 355.971 6.68466 355.673 6.8608C355.377 7.03693 355.049 7.125 354.688 7.125ZM354.688 6.27273C354.893 6.27273 355.079 6.22301 355.246 6.12358C355.414 6.02415 355.548 5.89062 355.647 5.72301C355.746 5.5554 355.796 5.36932 355.796 5.16477C355.796 4.96023 355.746 4.77415 355.647 4.60653C355.548 4.43892 355.414 4.3054 355.246 4.20597C355.079 4.10653 354.893 4.05682 354.688 4.05682C354.484 4.05682 354.298 4.10653 354.13 4.20597C353.962 4.3054 353.829 4.43892 353.729 4.60653C353.63 4.77415 353.58 4.96023 353.58 5.16477C353.58 5.36932 353.63 5.5554 353.729 5.72301C353.829 5.89062 353.962 6.02415 354.13 6.12358C354.298 6.22301 354.484 6.27273 354.688 6.27273Z" fill="#DCC879"/>
</svg>
